<mxfile host="Electron" agent="Mozilla/5.0 (Windows NT 10.0; Win64; x64) AppleWebKit/537.36 (KHTML, like Gecko) draw.io/28.2.5 Chrome/138.0.7204.251 Electron/37.6.1 Safari/537.36" version="28.2.5">
  <diagram name="Page-1" id="Z6euC-GC6ZMElodOfMUQ">
    <mxGraphModel dx="1042" dy="626" grid="1" gridSize="10" guides="1" tooltips="1" connect="1" arrows="1" fold="1" page="1" pageScale="1" pageWidth="1100" pageHeight="850" math="0" shadow="0">
      <root>
        <mxCell id="0" />
        <mxCell id="1" parent="0" />
        <mxCell id="oVr7HtLfK873z-QmrlRd-5" value="&lt;font style=&quot;font-size: 18px;&quot;&gt;гост&lt;/font&gt;" style="shape=umlActor;verticalLabelPosition=bottom;verticalAlign=top;html=1;" parent="1" vertex="1">
          <mxGeometry x="260" y="365" width="30" height="60" as="geometry" />
        </mxCell>
        <mxCell id="oVr7HtLfK873z-QmrlRd-17" value="&lt;font style=&quot;font-size: 18px;&quot;&gt;пријава&lt;/font&gt;" style="shape=folder;fontStyle=1;tabWidth=100;tabHeight=30;tabPosition=left;html=1;boundedLbl=1;labelInHeader=1;container=1;collapsible=0;whiteSpace=wrap;" parent="1" vertex="1">
          <mxGeometry x="460" y="390" width="380" height="250" as="geometry" />
        </mxCell>
        <mxCell id="oVr7HtLfK873z-QmrlRd-18" value="" style="html=1;strokeColor=none;resizeWidth=1;resizeHeight=1;fillColor=none;part=1;connectable=0;allowArrows=0;deletable=0;whiteSpace=wrap;" parent="oVr7HtLfK873z-QmrlRd-17" vertex="1">
          <mxGeometry width="380" height="175" relative="1" as="geometry">
            <mxPoint y="30" as="offset" />
          </mxGeometry>
        </mxCell>
        <mxCell id="oVr7HtLfK873z-QmrlRd-15" value="&lt;font style=&quot;font-size: 18px;&quot;&gt;пријава као клијент&lt;/font&gt;" style="ellipse;whiteSpace=wrap;html=1;" parent="oVr7HtLfK873z-QmrlRd-17" vertex="1">
          <mxGeometry x="90.63513513513513" y="65" width="198.7297297297297" height="60.95" as="geometry" />
        </mxCell>
        <mxCell id="oVr7HtLfK873z-QmrlRd-16" value="&lt;font style=&quot;font-size: 18px;&quot;&gt;пријава као фризерски салон&lt;/font&gt;" style="ellipse;whiteSpace=wrap;html=1;" parent="oVr7HtLfK873z-QmrlRd-17" vertex="1">
          <mxGeometry x="50.355135135135136" y="154.76" width="279.2897297297297" height="71.43" as="geometry" />
        </mxCell>
        <mxCell id="oVr7HtLfK873z-QmrlRd-19" value="&lt;font style=&quot;font-size: 18px;&quot;&gt;регистрација&lt;/font&gt;" style="shape=folder;fontStyle=1;tabWidth=150;tabHeight=35;tabPosition=left;html=1;boundedLbl=1;labelInHeader=1;container=1;collapsible=0;whiteSpace=wrap;" parent="1" vertex="1">
          <mxGeometry x="460" y="115" width="380" height="250" as="geometry" />
        </mxCell>
        <mxCell id="oVr7HtLfK873z-QmrlRd-20" value="" style="html=1;strokeColor=none;resizeWidth=1;resizeHeight=1;fillColor=none;part=1;connectable=0;allowArrows=0;deletable=0;whiteSpace=wrap;" parent="oVr7HtLfK873z-QmrlRd-19" vertex="1">
          <mxGeometry width="370" height="224.13793103448273" relative="1" as="geometry">
            <mxPoint y="30" as="offset" />
          </mxGeometry>
        </mxCell>
        <mxCell id="oVr7HtLfK873z-QmrlRd-12" value="&lt;font style=&quot;font-size: 18px;&quot;&gt;регистрација као клијент&lt;/font&gt;" style="ellipse;whiteSpace=wrap;html=1;" parent="oVr7HtLfK873z-QmrlRd-19" vertex="1">
          <mxGeometry x="74.75" y="55" width="230.5" height="60" as="geometry" />
        </mxCell>
        <mxCell id="oVr7HtLfK873z-QmrlRd-13" value="&lt;font style=&quot;font-size: 18px;&quot;&gt;регистрација као фризерски салон&lt;/font&gt;" style="ellipse;whiteSpace=wrap;html=1;" parent="oVr7HtLfK873z-QmrlRd-19" vertex="1">
          <mxGeometry x="30.75" y="145" width="318.5" height="70" as="geometry" />
        </mxCell>
        <mxCell id="oVr7HtLfK873z-QmrlRd-21" value="" style="endArrow=none;startArrow=none;endFill=0;startFill=0;endSize=8;html=1;verticalAlign=bottom;labelBackgroundColor=none;strokeWidth=3;rounded=0;entryX=0;entryY=0.5;entryDx=0;entryDy=0;" parent="1" target="oVr7HtLfK873z-QmrlRd-12" edge="1">
          <mxGeometry width="160" relative="1" as="geometry">
            <mxPoint x="300" y="370" as="sourcePoint" />
            <mxPoint x="380" y="285" as="targetPoint" />
          </mxGeometry>
        </mxCell>
        <mxCell id="oVr7HtLfK873z-QmrlRd-22" value="" style="endArrow=none;startArrow=none;endFill=0;startFill=0;endSize=8;html=1;verticalAlign=bottom;labelBackgroundColor=none;strokeWidth=3;rounded=0;entryX=0;entryY=0.5;entryDx=0;entryDy=0;" parent="1" target="oVr7HtLfK873z-QmrlRd-13" edge="1">
          <mxGeometry width="160" relative="1" as="geometry">
            <mxPoint x="310" y="380" as="sourcePoint" />
            <mxPoint x="790" y="415" as="targetPoint" />
          </mxGeometry>
        </mxCell>
        <mxCell id="oVr7HtLfK873z-QmrlRd-23" value="" style="endArrow=none;startArrow=none;endFill=0;startFill=0;endSize=8;html=1;verticalAlign=bottom;labelBackgroundColor=none;strokeWidth=3;rounded=0;entryX=0;entryY=0.5;entryDx=0;entryDy=0;" parent="1" target="oVr7HtLfK873z-QmrlRd-15" edge="1">
          <mxGeometry width="160" relative="1" as="geometry">
            <mxPoint x="310" y="390" as="sourcePoint" />
            <mxPoint x="790" y="415" as="targetPoint" />
            <Array as="points">
              <mxPoint x="450" y="450" />
            </Array>
          </mxGeometry>
        </mxCell>
        <mxCell id="oVr7HtLfK873z-QmrlRd-24" value="" style="endArrow=none;startArrow=none;endFill=0;startFill=0;endSize=8;html=1;verticalAlign=bottom;labelBackgroundColor=none;strokeWidth=3;rounded=0;entryX=0;entryY=0.5;entryDx=0;entryDy=0;" parent="1" target="oVr7HtLfK873z-QmrlRd-16" edge="1">
          <mxGeometry width="160" relative="1" as="geometry">
            <mxPoint x="310" y="400" as="sourcePoint" />
            <mxPoint x="790" y="415" as="targetPoint" />
          </mxGeometry>
        </mxCell>
      </root>
    </mxGraphModel>
  </diagram>
</mxfile>
